<svg xmlns="http://www.w3.org/2000/svg" xmlns:xlink="http://www.w3.org/1999/xlink" viewBox="0 0 68.79 84.33"><defs><style>.cls-1{fill:url(#linear-gradient);}.cls-2{font-size:12.77px;fill:#cc0063;font-family:Montserrat-SemiBold, Montserrat;font-weight:600;}.cls-3{letter-spacing:-0.01em;}.cls-4{letter-spacing:-0.01em;}.cls-5{letter-spacing:0em;}</style><linearGradient id="linear-gradient" y1="33.24" x2="68.79" y2="33.24" gradientUnits="userSpaceOnUse"><stop offset="0" stop-color="#fff"/><stop offset="0" stop-color="#f8f8f8"/><stop offset="0" stop-color="#cc0063"/><stop offset="1" stop-color="#f63"/></linearGradient></defs><title>avatarAsset 2</title><g id="Layer_2" data-name="Layer 2"><g id="Layer_1-2" data-name="Layer 1"><path class="cls-1" d="M42.66,63.67a2.44,2.44,0,0,1-3,1.48c-1.67-.58-3.2-.57-4.43.91-.19.23-.43.56-.76.37s-.2-.58,0-.81c.72-.84,0-1.07-.55-1.29-2-.83-4.06-1.73-6.15-2.41A5.81,5.81,0,0,1,24,58.69c-.33-.75-.7-.86-1.36-.29-.3.26-.77.88-1.23.36s.18-.9.51-1.15c1.13-.84,1-1.63.31-2.78a17.58,17.58,0,0,0-6.67-6.42c-1.1-.62-1.85-1.14-2.86,0a1,1,0,0,1-.72.27c-3.52-.19-6.83-.9-9.1-4a2.21,2.21,0,0,1-.51-2c.92-2.43-.41-3.58-2.35-4.45V37.18a1.25,1.25,0,0,1,1.25.26c.9.82,1.26.56,1.68-.52,1-2.51,1.75-5.08,2.6-7.63a2.68,2.68,0,0,1,1.64-2c.73-.26.9-.67.25-1.35C7,25.46,6,24.81,6.7,24.21s1.29.38,1.71.85c.75.85,1.37.92,2.2.17A5.33,5.33,0,0,1,12,24.4c3.4-1.47,5.18-4.49,7.13-7.37a2.3,2.3,0,0,0,.27-2A13,13,0,0,1,20.83,4.87a3.49,3.49,0,0,1,3.32-2c.7,0,1.41,0,2.12,0a2,2,0,0,0,2.06-1.33A1.53,1.53,0,0,1,28.89.7c.5-.28,1.06-1,1.61-.53s-.24.93-.5,1.3c-.59.82-.59,1.2.52,1.48,2,.51,4,1.29,6.08,1.74a5.46,5.46,0,0,1,4,2.65c.51.95,1.09.88,1.66,0l.08-.1c.47-.53,1.11-1.29,1.7-.75s-.39,1-.8,1.45C41.63,9.64,41.6,10.2,43,12a17.23,17.23,0,0,0,5,3.91,35.42,35.42,0,0,1,5.26,3.3,1.38,1.38,0,0,0,1.23.29,12.39,12.39,0,0,1,10.3,3,1.54,1.54,0,0,1,.29.28c.93,1.45,1.55,3.14,3.2,4,.26.15.75.63.4,1a1.1,1.1,0,0,1-1.46-.09c-.2-.16-.36-.38-.55-.56-.47-.46-.78-.39-.83.29-.3,3.92-1.94,7.38-3.64,10.82-.55,1.09-.53,1.9.59,2.55.35.21.91.45.52,1s-.83.18-1.06-.08c-1.4-1.6-2.9-.78-4.33-.19C52.8,43.64,49.09,47.39,46,51.82c-.62.88-.16,1.73.08,2.53a10.33,10.33,0,0,1-.35,6.48,4.36,4.36,0,0,1-3,2.85,4.49,4.49,0,0,0-2.24-1.58c-1.42-.46-2.88-.82-4.31-1.28a5.15,5.15,0,0,1-2.7-1.43,4.22,4.22,0,0,1,2.09.23c2.56.65,5.12,1.28,7.68,1.91.43.11.88.26,1.14-.31A1,1,0,0,0,44,59.94a4.54,4.54,0,0,0-1.14-.63c-2.64-1-5.29-1.94-7.94-2.92-.33-.13-.9-.15-.73-.72s.6-.4,1-.33a14.83,14.83,0,0,1,3.6,1.27A10.68,10.68,0,0,0,44.2,58c.36,0,.77-.06.88-.45s-.36-.54-.64-.68c-.9-.45-1.83-.86-2.74-1.3L36.33,53a1.87,1.87,0,0,1,1.73,0c2,.53,4,1.08,6,1.6.26.07.62.34.81-.08s-.17-.55-.4-.74-.51-.35-.77-.52c-2.46-1.63-4.91-3.28-7.39-4.89a1.27,1.27,0,0,1-.64-1.76c.43-1,.83-2,1.28-3,.24-.53.61-1.06.16-1.59a1.6,1.6,0,0,0-1.6-.43c-1.07.23-2.17.31-3.24.62a16.64,16.64,0,0,1-5.75.64c-2.26-.17-3.45-2-4.93-3.31-1.14-1-1.29-1.08-2.27.16a57.44,57.44,0,0,0-3.42,5c-1.26,2-.9,1.77.68,2.86,1.87,1.3,3.94,2.32,5.44,4.14a40,40,0,0,1,4.46,7.63,2.77,2.77,0,0,0,1.79,1.58c2.79.8,5.54,1.78,8.34,2.56C38.58,64,40.6,64.64,42.66,63.67ZM29.72,14.8a2.13,2.13,0,0,1-1.72.1l-6.38-1.1c-.25-.05-.56-.21-.68.13s.18.47.39.61.59.39.9.56l7.29,4c1.39.77,1.63,1.39,1.12,2.92-.32.92-.65,1.83-1,2.74s.15,1.32,1,1.47a3.49,3.49,0,0,0,1.56-.2c1.85-.57,3.7-1.18,5.58-1.64s3.69-.57,5.31.7q1.73,1.35,3.37,2.78c1.05.9,1.36.9,2.13-.32,1.06-1.68,2.07-3.39,3.08-5.1,1.28-2.16,1.23-2.07-1-3.35S46,16.87,44.1,15a34.63,34.63,0,0,1-4.9-7,3.3,3.3,0,0,0-2.34-1.72C33.24,5.48,29.63,4.67,26,3.92a4.46,4.46,0,0,0-2.47.27c-.28.1-.67.13-.71.5s.31.5.57.66a10.7,10.7,0,0,0,4.12,1.31A9.38,9.38,0,0,1,32.07,8.1a.71.71,0,0,1-.75.19c-2.91-.49-5.82-1-8.73-1.46-.58-.09-1.33-.27-1.51.61s.4,1.1,1,1.35a5.25,5.25,0,0,0,.63.22c2.68.73,5.36,1.46,8,2.22.36.11,1,0,.94.69s-.67.42-1.08.41a12.49,12.49,0,0,1-3.7-1,13.1,13.1,0,0,0-5.28-1c-.37,0-.89,0-1,.52s.4.62.76.76c1,.36,1.9.69,2.85,1.06C26.08,13.38,27.89,14.09,29.72,14.8ZM52.61,31.37a.84.84,0,0,1-.08-1.08q1.41-3.7,2.84-7.41c.16-.39.3-.79-.09-1.08s-.82-.06-1.12.32l-.65.84c-1.59,2.11-3.21,4.21-4.77,6.34a1.33,1.33,0,0,1-2,.44c-1-.58-2-1.09-3-1.64-.35-.19-.67-.45-1.1-.19s-.41.76-.36,1.19c.28,2.4.57,4.81.9,7.21a3,3,0,0,1-.7,2.67c-1.81,2.05-3.5,4.2-5.24,6.31-.66.81-.85,1.54.21,2.2,1.91,1.19,3.8,2.4,5.69,3.62.73.46,1.33.43,1.79-.35,1.21-2.08,3.07-3.62,4.57-5.46a10,10,0,0,1,4.75-3.62c1.34-.42,2.59-1.14,3.94-1.54a4.72,4.72,0,0,0,3.17-3c1.61-3.84,3.1-7.69,3.39-11.89,0-.35.24-.76-.24-.9s-.57.29-.72.61c-.26.51-.49,1-.77,1.54-.95,1.66-1.51,3.53-2.65,5.2-.32-.6,0-1,.1-1.39.68-2.24,1.37-4.47,2-6.71.15-.49.45-1.05-.29-1.34s-1,.26-1.29.78c-.79,1.53-1.58,3.06-2.39,4.58S57,30.35,56.28,31.72a4.92,4.92,0,0,1,.51-3.08,30.41,30.41,0,0,0,1.85-4.95,2.75,2.75,0,0,0-.43-2.75C56.28,24.43,54.72,28,52.61,31.37ZM14.27,38.53a1.51,1.51,0,0,1,.11,1.52c-.55,2-1.09,4-1.65,6-.06.25-.25.53,0,.72s.58,0,.79-.27a4,4,0,0,0,.4-.52c1.7-2.53,3.44-5,5.08-7.59a1.39,1.39,0,0,1,2-.68c1.05.45,2.07,1,3.12,1.44s1.53.27,1.75-.91c.06-.3,0-.62.05-.92.17-2.23-1-4.19-1.23-6.32-.22-1.72-.5-3.71.9-4.84a20.18,20.18,0,0,0,3.57-4.35c.58-.83.55-1.4-.5-1.83q-3.37-1.35-6.7-2.84a1,1,0,0,0-1.42.44c-1.34,1.81-2.79,3.55-4.05,5.4a8.82,8.82,0,0,1-3.34,2.91c-1.81.93-3.6,1.88-5.4,2.81a1.83,1.83,0,0,0-1.06,1.1c-1,3.33-2,6.65-3,10A7.79,7.79,0,0,0,3.24,43c.07.47.13,1.11.64,1.21s.63-.53.85-.89A21.44,21.44,0,0,0,6.57,38a4.61,4.61,0,0,1,1.37-2.57,1.37,1.37,0,0,1,0,1.26c-.68,2.65-1.4,5.28-2,7.94-.14.55-.68,1.37.35,1.66.83.23,1.29-.39,1.6-1.07A13.12,13.12,0,0,0,8.36,44c.87-2.36,1.73-4.72,2.61-7.07.15-.38.17-1,.82-.79s.3.73.23,1.14A15.65,15.65,0,0,1,10.67,41a10.42,10.42,0,0,0-1.34,5.18c0,.41,0,.88.49,1s.5-.42.64-.7c.42-.82.79-1.67,1.19-2.5Zm24.36,2.61a.67.67,0,0,0,.58-.33c.82-1,1.63-2.08,2.47-3.1A1.8,1.8,0,0,0,42,36.08c-.61-3-1.68-6.06-.44-9.2a.67.67,0,0,0-.15-.72,3.39,3.39,0,0,0-3.7-1c-1,.38-2,.8-3,1.09-2.19.64-4.41,1.39-6.62.05a.59.59,0,0,0-.73,0,4.25,4.25,0,0,0-1.64,4.17c.4,1.62.93,3.22,1.24,4.86s.51,3.45-1.19,4.66c-.29.21-.29.42-.06.65.6.58,1.15,1.24,2.16.95.8-.23,1.63-.37,2.44-.58,2.66-.68,5.33-1.28,8,0Z"/><text class="cls-2" transform="translate(3.26 80.95)"><tspan class="cls-3">E</tspan><tspan x="8.49" y="0">a</tspan><tspan class="cls-4" x="16.24" y="0">s</tspan><tspan class="cls-5" x="22.69" y="0">y Help</tspan></text></g></g></svg>